/* XPM */
static char *result[] = {
/* columns rows colors chars-per-pixel */
"16 17 196 2 ",
"   c black",
".  c #000003",
"X  c #00000D",
"o  c #00000E",
"O  c #00000F",
"+  c #000713",
"@  c #020A14",
"#  c #091924",
"$  c #0B1B26",
"%  c #0C1C27",
"&  c #0E1D27",
"*  c #0D1B2B",
"=  c #0C1C28",
"-  c #111C24",
";  c #12212C",
":  c #122330",
">  c #212E36",
",  c #292E34",
"<  c #2B3339",
"1  c #343A3D",
"2  c #333B41",
"3  c #363E43",
"4  c #3C3F41",
"5  c #384147",
"6  c #3E4447",
"7  c #394348",
"8  c #414649",
"9  c #43484C",
"0  c #474C4E",
"q  c #4B4F52",
"w  c #4C4D52",
"e  c #4D5458",
"r  c #4E565A",
"t  c #5B5C5C",
"y  c #5E6161",
"u  c #676561",
"i  c #616465",
"p  c #666D6F",
"a  c #696B69",
"s  c #686D6F",
"d  c #7C746C",
"f  c #747472",
"g  c #797874",
"h  c #787B7B",
"j  c #7A7B7A",
"k  c #8F4036",
"l  c #96715B",
"z  c #927459",
"x  c #9B826A",
"c  c #8B837A",
"v  c #948A7F",
"b  c #AB8B66",
"n  c #A68769",
"m  c #B49577",
"M  c #BA9D7F",
"N  c #B8B279",
"B  c #C69971",
"V  c #C69A72",
"C  c #828582",
"Z  c #928A80",
"A  c #968B81",
"S  c #9E9A97",
"D  c #B99D85",
"F  c #BA9F86",
"G  c #B8A280",
"H  c #ADA297",
"J  c #ADA498",
"K  c #AAA49E",
"L  c #B1A294",
"P  c #B6A798",
"I  c #B4AC9F",
"U  c #B7AFA5",
"Y  c #BDB2A6",
"T  c #B5B3AA",
"R  c #C7A98F",
"E  c #C9B98F",
"W  c #DCBB95",
"Q  c #DFBEA0",
"!  c #D5BEAC",
"~  c #C1B9B1",
"^  c #C4BCB2",
"/  c #D2BFB0",
"(  c #DEC186",
")  c #E1D093",
"_  c #DFC1A5",
"`  c #DDC4AB",
"'  c #C1C2BF",
"]  c #CBC5BA",
"[  c #C8C5BF",
"{  c #CDC8BC",
"}  c #DCC9B2",
"|  c #D7C5BA",
" . c #D2C8BE",
".. c #D9C8BC",
"X. c #DBCABC",
"o. c #E4CEA4",
"O. c #E0C7AE",
"+. c #E8C9A9",
"@. c #E9D5A4",
"#. c #F5D1A7",
"$. c #E2CAB7",
"%. c #EDCFB0",
"&. c #E1CBB8",
"*. c #E7D2BD",
"=. c #F6D5B0",
"-. c #F3D5B7",
";. c #F6DFB2",
":. c #FFDDB7",
">. c #F4ECBA",
",. c #DECFC5",
"<. c #D6D0C1",
"1. c #DFD1C1",
"2. c #E6D3C3",
"3. c #E7D5C2",
"4. c #EDD7C2",
"5. c #EDD7C3",
"6. c #EBD6C4",
"7. c #EDD7C5",
"8. c #E7D8C5",
"9. c #ECD9C6",
"0. c #EDDDC7",
"q. c #E6D7CA",
"w. c #E7D7CA",
"e. c #EAD7C9",
"r. c #E5DBCA",
"t. c #E9D8CA",
"y. c #EDDAC9",
"u. c #EFDCCA",
"i. c #ECDBCD",
"p. c #ECDBCE",
"a. c #EEDCCE",
"s. c #F6DBC1",
"d. c #F1DDC9",
"f. c #F3DEC9",
"g. c #E9DDD5",
"h. c #EFDDD4",
"j. c #FFEBC5",
"k. c #F7E2CF",
"l. c #F4E5CF",
"z. c #F9E0C8",
"x. c #FAE4CF",
"c. c #FFEAC8",
"v. c #FFF1CE",
"b. c #F1E0D0",
"n. c #F3E0D0",
"m. c #F1E0D2",
"M. c #F7E3D2",
"N. c #F1E2D4",
"B. c #F5E4D5",
"V. c #F7E4D6",
"C. c #F7E8D2",
"Z. c #F6EAD5",
"A. c #FFE9D0",
"S. c #FEE8D2",
"D. c #FFE9D3",
"F. c #FFEBD2",
"G. c #FBEAD7",
"H. c #FFECD6",
"J. c #F1E3D8",
"K. c #F5E4D8",
"L. c #F5E5D8",
"P. c #F6E6D8",
"I. c #F5E8D8",
"U. c #F6EBD9",
"Y. c #FFEBD9",
"T. c #FEEBDB",
"R. c #FCECDD",
"E. c #FFFFD5",
"W. c #FFF1D9",
"Q. c #FFF4DB",
"!. c #FFF5DC",
"~. c #FFF6DF",
"^. c #FDF1E2",
"/. c #FDF4E4",
"(. c #FFF7E4",
"). c #FFF9E1",
"_. c #FFFFE1",
"`. c #FFF8E4",
"'. c #FFFBE5",
"]. c #FFFFE7",
"[. c #FCF0EA",
"{. c #FFF5EA",
"}. c #FFFCE9",
"|. c #FFFFEC",
" X c #FFFFED",
".X c FloralWhite",
"XX c #FFFBF3",
"oX c ivory",
"OX c #FFFFF1",
"+X c #FFFFF2",
"@X c #FEFBF5",
"#X c #FFFCF7",
"$X c #FFFFF6",
"%X c #FFFFF8",
"&X c white",
"*X c None",
/* pixels */
"*X*X*X*X*X*X*X( ) *X*X*X*X*X*X*X",
"*X*X*X*Xb c.).^.k.v.E.N *X*X*X*X",
"*X*X*X#.!.[.N.P.d.0./.%X_.*X*X*X",
"*X*X:.{.q.e.9.n.B.C.Z.U.$X X*X*X",
"*XM [ w.6.2.$.u.B.V.l.Q.8.' >.*X",
"*X` : ~  XH.p.i.y.7.}.&XI * |.*X",
"x S.- O s ] W.O.m.~.{ p   > &XE ",
"F I.L 6 o . C '.`.h   X w <.@X@.",
"R L.Z t g u + ^ H @ f j i T #X;.",
"D K.P 4 < 0 8 y a e 9 , q r.XXo.",
"l M.! 4.*.A 2 3 5 7 J x.(.G.+XG ",
"k s.| X.1.F.v % = U oXb.a.h.].*X",
"*Xm R./ X.f.c & ; K D.3.t.%XW *X",
"*X*X+.J...5.d $ # S -.} .Xj.*X*X",
"*X*X*XQ T.,.&.1 r Y.g.OX=.*X*X*X",
"*X*X*X*Xz _ z.Y  .A.%.n *X*X*X*X",
"*X*X*X*X*X*X*XV B *X*X*X*X*X*X*X"
};
