/* XPM */
static char *result[] = {
/* columns rows colors chars-per-pixel */
"32 33 198 2 ",
"   c #000001",
".  c #00010C",
"X  c #000513",
"o  c #010916",
"O  c #000C1A",
"+  c #03121D",
"@  c #10191E",
"#  c #041522",
"$  c #0C1723",
"%  c #0D1B25",
"&  c #0C1D28",
"*  c #101B26",
"=  c #131F2B",
"-  c #0F202C",
";  c #13212C",
":  c #1A232C",
">  c #162530",
",  c #1D2A33",
"<  c #262F35",
"1  c #2B353C",
"2  c #32383D",
"3  c #5E3916",
"4  c #603B18",
"5  c #593E21",
"6  c #704619",
"7  c #7A532E",
"8  c #7E5934",
"9  c #775333",
"0  c #2D3A42",
"q  c #373D42",
"w  c #393F44",
"e  c #364046",
"r  c #394246",
"t  c #3C4449",
"y  c #36424B",
"u  c #424649",
"i  c #454B4D",
"p  c #4B5458",
"a  c #53595D",
"s  c #5A5C5C",
"d  c #535556",
"f  c #596165",
"g  c #646B6E",
"h  c #676866",
"j  c #746F69",
"k  c #70706E",
"l  c #7B7C7A",
"z  c #727170",
"x  c #835D39",
"c  c #875A29",
"v  c #8D6336",
"b  c #92683A",
"n  c #8F6B49",
"m  c #926D49",
"M  c #9F7248",
"N  c #A17448",
"B  c #A57D5A",
"V  c #837F79",
"C  c #807A73",
"Z  c #938D51",
"A  c #A4834F",
"S  c #AA885A",
"D  c #BE9059",
"F  c #A9955A",
"G  c #8D857C",
"H  c #90887F",
"J  c #AF8560",
"K  c #AE9C63",
"L  c #BA936B",
"P  c #A9A360",
"I  c #B7B26C",
"U  c #C8995E",
"Y  c #C39668",
"T  c #C69D76",
"R  c #CFB26F",
"E  c #CAA775",
"W  c #D6AA7A",
"Q  c #D2BC7D",
"!  c #CDAA68",
"~  c #ECB87E",
"^  c #E6C57B",
"/  c #7D8182",
"(  c #888884",
")  c #928C86",
"_  c #9D958C",
"`  c #9A9892",
"'  c #A19385",
"]  c #AA9B8C",
"[  c #AB9E93",
"{  c #A39C93",
"}  c #ADA397",
"|  c #BBA593",
" . c #BCAC9C",
".. c #B2A396",
"X. c #A7A7A2",
"o. c #BAAEA2",
"O. c #BDB5AB",
"+. c #BDB2A4",
"@. c #B1B6B1",
"#. c #CFA98C",
"$. c #D2A985",
"%. c #D4B18C",
"&. c #C3AD9A",
"*. c #C4AA96",
"=. c #C6B19E",
"-. c #D6B69A",
";. c #E5B586",
":. c #E9BF92",
">. c #E4BD96",
",. c #C1AFA3",
"<. c #C3B3A3",
"1. c #CCBBAA",
"2. c #D2BFAD",
"3. c #D3BBA5",
"4. c #D2BFB1",
"5. c #D7C680",
"6. c #F7C08D",
"7. c #E6DB8F",
"8. c #EEC996",
"9. c #E0D493",
"0. c #FFD79C",
"q. c #E4C589",
"w. c #DDC2A5",
"e. c #DCC4AD",
"r. c #D4C1AD",
"t. c #CCC3B9",
"y. c #CCC6B8",
"u. c #D4C3B5",
"i. c #D9C6B5",
"p. c #DCC9B6",
"a. c #D4C7BB",
"s. c #D9C7BA",
"d. c #D5C9BC",
"f. c #DBCABB",
"g. c #EDC8A6",
"h. c #EECBAB",
"j. c #E7C7A8",
"k. c #F2CCA4",
"l. c #FFD6A4",
"z. c #FDD8A8",
"x. c #E4CCB5",
"c. c #E1CEBB",
"v. c #E5D1BD",
"b. c #EBD3BB",
"n. c #F7DAB4",
"m. c #FFFAA5",
"M. c #FFEDBB",
"N. c #FFFEBD",
"B. c #D3CCC3",
"V. c #DBCEC1",
"C. c #DDD1C4",
"Z. c #DBD6CA",
"A. c #E1CFC1",
"S. c #E5D4C4",
"D. c #E9D5C5",
"F. c #EDDAC6",
"G. c #E4D5CB",
"H. c #EAD6C9",
"J. c #E4DACC",
"K. c #ECDACB",
"L. c #F9DEC2",
"P. c #F1DECC",
"I. c #F3DBC4",
"U. c #E4DBD4",
"Y. c #EDDDD1",
"T. c #F1DFD1",
"R. c #EEE0C9",
"E. c #F3E2CD",
"W. c #FFEBCA",
"Q. c #FFE3C3",
"!. c #FFF2C2",
"~. c #FFFBC7",
"^. c #EDE2D4",
"/. c #EDE4D7",
"(. c #F4E3D3",
"). c #F9E4D2",
"_. c #F5EBD5",
"`. c #FCEBD5",
"'. c #F3E5DA",
"]. c #F5EADD",
"[. c #FAEDDA",
"{. c #FFFDD4",
"}. c #F6F0DC",
"|. c #FDF3DD",
" X c #FFFFDC",
".X c #FFF2D2",
"XX c #EDE5E0",
"oX c #F4EBE5",
"OX c #FAEFE4",
"+X c #F5EBE7",
"@X c #F7F3E2",
"#X c #FFFBE4",
"$X c #FAF3EC",
"%X c #FFFEEC",
"&X c #FEF2E4",
"*X c #FFFFF3",
"=X c #FFFFFE",
"-X c None",
/* pixels */
"-X-X-X-X-X-X-X-X-X-X-X-X-X-XA ! R F -X-X-X-X-X-X-X-X-X-X-X-X-X-X",
"-X-X-X-X-X-X-X-X-X-Xb W z.!..XW.W. X#X~.9.F -X-X-X-X-X-X-X-X-X-X",
"-X-X-X-X-X-X-X-XN z.{.$X$X/.].[.].E.#.].%X#Xm.I -X-X-X-X-X-X-X-X",
"-X-X-X-X-X-X-X~ z.oXXXT.(.(.K.(.|.v.E E.@X_.n.%XN.-X-X-X-X-X-X-X",
"-X-X-X-X-X8 l.OXT x.'.P.P.(.T.(.(.`.#X}.`.[.}.}.*X XP -X-X-X-X-X",
"-X-X-X-X6 l.$XK.Y.T.T.Y.E.T.(.(.[.F.R.[._._._.}._.$X%XP -X-X-X-X",
"-X-X-X5 :.'.Y.H.K.A.S.T.].].P.(.(.(.`.(.(.}.}._._.|.*X#XZ -X-X-X",
"-X-X-X;.*X4.V.H.K.c.S.'.3.-.'.(.(.(.T.(.[.E._.`.}.R.y.=X~.-X-X-X",
"-X-XN %X) a /.S.K.(.H.'.-.#.oXP.(.(.K.P..XE._._.}.F.y @.=X7.-X-X",
"-X-Xz.].* p *XD.A.c.S.S.'.].K.P.(.E.).'.(.E.E.[._.|.< e =X#X-X-X",
"-Xn `.+.% $ B.*XF.x.K.H.K.K.K.E.K.T.F.(.'.E.F.#X=X+.o , ].=X5.-X",
"-X$.(. .< X ; X.&X%X).F.S.S.K.H.H.[.-.e.`.%X=X#X` ; . 2 _.*XN.-X",
"-Xh.Z.e.u O $ X y l y.*X`.H.Y w.'.Y.S.[.%XB./ 0 X % X a %X$X#X-X",
"9 L.V.x.' O # , + . % g /.#Xe.S.Y.K.*X(.g + . + , o O B.*X}.*XP ",
"m P.f.1.x.] ; X O & % . , Z.%XS.S.#Xt.= . % % X . : Z.%XR.}.%XQ ",
"B S.f.f...+.I.H s 2 + # . , /.[.`.u.* X O + q h [ *XZ.C._.[..X^ ",
"J S.f.c...% k u.p.a.&.d O   g *X`.i   O k a.S.J.J.k - /.&X[.&X8.",
"B H.f.2.x.s   O : 0 G i.H o # K.1.. % <.B.l 2 - .   ( *X_._.#Xq.",
"n K.a.u.3.=.h : & o   #  .G   [ ( . O.} .   o % : ( #X_.(.E._.! ",
"9 b.d.u.u.u.e.=...' j + . ` q d i f `   = G ]  .c.#X_.P.E.OX XF ",
"-Xj.C.V.&.*.c.p.p.v.b.=.: : f r p h o 2 S.`.).E.(.T.T._.(.+X{.-X",
"-XT J.s.*.*.C.f.f.f.u.b. .% ; i p % = ^.`.S.K.^.K.K.T.F.E.OXz.-X",
"-Xx I.4.f.C.a.p.d.f.u.1.b.h . t q   ) *XD.H.K.F.K.K.K.D.(.#XU -X",
"-X-X>.U.u.f.r.a.f.p.p.a.x.H X r q o O.&XS.S.H.H.H.P.(.J.oX~.-X-X",
"-X-Xv P.B.2.2.u.f.s.V.1.x.C X t r X X.#XV.^.K.S.S.K.K./.#XU -X-X",
"-X-X-XW ^.4.u.u.s.u.f.f.<.< O t t . 0 J.D.%.v.K.K.K.K.OX0.-X-X-X",
"-X-X-X-X8.U.u.i.s.s.f.s.| u X t r X a T.c.D c.K.K.K.XXM.-X-X-X-X",
"-X-X-X-X4 k.U.u.u.s.s.1.3.3.: 1 : 0 [.D.H.G.f.K.S.U.!.v -X-X-X-X",
"-X-X-X-X-X3 :.Y.t.p.p.u.u.x.j = & ` `.c.f.f.A.Y.OXl.c -X-X-X-X-X",
"-X-X-X-X-X-X-XY L.G.,.u.p.u.| 0 p K.i.A.p.V.oX`.;.-X-X-X-X-X-X-X",
"-X-X-X-X-X-X-X-X7 $.h.H.G.a.<.o.B.^.U.U.(.Q.:.b -X-X-X-X-X-X-X-X",
"-X-X-X-X-X-X-X-X-X-X9 J %.j.j.b.b.j.h.;.L x -X-X-X-X-X-X-X-X-X-X",
"-X-X-X-X-X-X-X-X-X-X-X-X-X-X8 N M x -X-X-X-X-X-X-X-X-X-X-X-X-X-X"
};
