/* XPM */
static char *result[] = {
/* columns rows colors chars-per-pixel */
"65 65 231 2 ",
"   c #000002",
".  c #00010C",
"X  c #000513",
"o  c #000916",
"O  c #000D1A",
"+  c #02111E",
"@  c #13181D",
"#  c #051521",
"$  c #091621",
"%  c #0C1B25",
"&  c #0E1E29",
"*  c #111E29",
"=  c #111E27",
"-  c #15222C",
";  c #18252F",
":  c #1A2730",
">  c #1C2932",
",  c #142430",
"<  c #232E36",
"1  c #2C363C",
"2  c #2E383E",
"3  c #26313B",
"4  c #5C3A1B",
"5  c #6D3C19",
"6  c #533B25",
"7  c #69411E",
"8  c #75471D",
"9  c #744A24",
"0  c #7E562A",
"q  c #6E4B29",
"w  c #2D3841",
"e  c #343C42",
"r  c #383E43",
"t  c #3A4248",
"y  c #43494C",
"u  c #464E54",
"i  c #4A5257",
"p  c #545759",
"a  c #565D61",
"s  c #4D5760",
"d  c #5B6369",
"f  c #646564",
"g  c #6A6B6A",
"h  c #74726E",
"j  c #727370",
"k  c #7D7974",
"l  c #787B7B",
"z  c #6B7072",
"x  c #61605D",
"c  c #8E3900",
"v  c #A15A0A",
"b  c #885627",
"n  c #965D2A",
"m  c #9A612B",
"M  c #916C35",
"N  c #AC773B",
"B  c #BB7B38",
"V  c #A96B2F",
"C  c #A25E0D",
"Z  c #C37C36",
"A  c #847D4A",
"S  c #B77B41",
"D  c #827C75",
"F  c #867F78",
"G  c #997A66",
"H  c #79807F",
"J  c #BE863B",
"K  c #C7843C",
"L  c #E7983F",
"P  c #968D4E",
"I  c #BA9856",
"U  c #B18C50",
"Y  c #89837C",
"T  c #958778",
"R  c #B78E6D",
"E  c #A8A661",
"W  c #C98847",
"Q  c #D38E48",
"!  c #DA9847",
"~  c #CA8E56",
"^  c #CC935A",
"/  c #D3965A",
"(  c #C89C4C",
")  c #E49B4A",
"_  c #CCAA58",
"`  c #EEAE57",
"'  c #CA9A66",
"]  c #D59C65",
"[  c #C49973",
"{  c #DCA46D",
"}  c #D9A878",
"|  c #D2B16F",
" . c #E7A96A",
".. c #FAB761",
"X. c #F5B570",
"o. c #D5D079",
"O. c #FFC575",
"+. c #FFD877",
"@. c #F4D171",
"#. c #F8E27A",
"$. c #757D82",
"%. c #7A8284",
"&. c #858888",
"*. c #9A9289",
"=. c #979896",
"-. c #8E9192",
";. c #A59688",
":. c #B39D8A",
">. c #A69C91",
",. c #A7A29C",
"<. c #BDAB9A",
"1. c #B8A696",
"2. c #B7A28D",
"3. c #AAABA7",
"4. c #BAAEA3",
"5. c #BAB2A9",
"6. c #BFBBB4",
"7. c #AFB9BA",
"8. c #C9A789",
"9. c #D5AD86",
"0. c #D9B38C",
"q. c #C1AE9D",
"w. c #C6AA92",
"e. c #C4B09D",
"r. c #CCB39C",
"t. c #D6B796",
"y. c #CFB08B",
"u. c #E4B587",
"i. c #EDBC89",
"p. c #C6B4A3",
"a. c #CAB6A4",
"s. c #CBB9A6",
"d. c #CDBBAB",
"f. c #C2B9AF",
"g. c #D3BBA5",
"h. c #D2BEAC",
"j. c #D8BCA2",
"k. c #C6BCB2",
"l. c #D1BFB0",
"z. c #C2AFA0",
"x. c #FFD788",
"c. c #F3D194",
"v. c #FDF18B",
"b. c #FFE999",
"n. c #FFFC98",
"m. c #F2EC86",
"M. c #D4C1AD",
"N. c #DCC3AC",
"B. c #DAC3A8",
"V. c #C8C3BC",
"C. c #D5C4B4",
"Z. c #DAC6B4",
"A. c #D7C8B7",
"S. c #DBC9B6",
"D. c #D6C6B9",
"F. c #D8C6B9",
"G. c #D6C9BA",
"H. c #DACABB",
"J. c #D7C8B7",
"K. c #E3C8AC",
"L. c #FBD7A6",
"P. c #E3CBB4",
"I. c #E1CDBC",
"U. c #E3C9B2",
"Y. c #E3D2BE",
"T. c #EAD3BC",
"R. c #E9D5BA",
"E. c #F5D9BA",
"W. c #FDE8A9",
"Q. c #FFFEAC",
"!. c #FFFFA3",
"~. c #FFFEB3",
"^. c #FFFCB9",
"/. c #FAE6B5",
"(. c #DFC29E",
"). c #DCCEC2",
"_. c #D4CEC3",
"`. c #DCD1C5",
"'. c #DDD4CB",
"]. c #D2D1CB",
"[. c #DDD8D1",
"{. c #CACBC8",
"}. c #E1CFC1",
"|. c #E4D3C4",
" X c #E9D6C6",
".X c #EADAC6",
"XX c #E4D6CA",
"oX c #E9D7C9",
"OX c #E4D9CD",
"+X c #ECDBCC",
"@X c #E7D8C4",
"#X c #F0DECD",
"$X c #F5DDC4",
"%X c #E3DCD3",
"&X c #EDDDD1",
"*X c #E8DBD6",
"=X c #F0DED1",
"-X c #EDE3CC",
";X c #F1E1CE",
":X c #FAE3CD",
">X c #F5E8CA",
",X c #FEF6C5",
"<X c #EDE2D5",
"1X c #EBE2DB",
"2X c #E9E5D9",
"3X c #F3E3D3",
"4X c #FAE6D4",
"5X c #F6EBD5",
"6X c #FAEBD5",
"7X c #F4E6DA",
"8X c #F6ECDA",
"9X c #FAECDA",
"0X c #F7F1DA",
"qX c #FCF3DC",
"wX c #FEFBDE",
"eX c #FCF2D4",
"rX c #EAE5E1",
"tX c #F5ECE3",
"yX c #F9ECE2",
"uX c #F3ECEA",
"iX c #FBEFE8",
"pX c #F6F2E4",
"aX c #FCF4E3",
"sX c #FEFAE5",
"dX c #FAF5EB",
"fX c #FEFCEC",
"gX c #F5F3EC",
"hX c #FFFEF3",
"jX c #FFFFFD",
"kX c #F8F5F2",
"lX c None",
/* pixels */
"lXlXlXlXlXlXlXlXlXlXlXlXlXlXlXlXlXlXlXlXlXlXlXlXlXlXlXlXM U W _ _ _ ( I P lXlXlXlXlXlXlXlXlXlXlXlXlXlXlXlXlXlXlXlXlXlXlXlXlXlXlXlX",
"lXlXlXlXlXlXlXlXlXlXlXlXlXlXlXlXlXlXlXlXlXlXlXb J ` O.x.b.W.W.W.W.W.W.~.Q.n.n.#._ P lXlXlXlXlXlXlXlXlXlXlXlXlXlXlXlXlXlXlXlXlXlXlX",
"lXlXlXlXlXlXlXlXlXlXlXlXlXlXlXlXlXlXlXlX0 K ..x.L.E.6X<XtXdXiXaXdXdXiXaXtXdX9X,X,X^.n.o.E lXlXlXlXlXlXlXlXlXlXlXlXlXlXlXlXlXlXlXlX",
"lXlXlXlXlXlXlXlXlXlXlXlXlXlXlXlXlXlXM ) O.L.$XuXdXiX<X*XY.3X6X0X X X9X9XfXqXtXiXtXOXwXb.v.n.E lXlXlXlXlXlXlXlXlXlXlXlXlXlXlXlXlXlX",
"lXlXlXlXlXlXlXlXlXlXlXlXlXlXlXlXb ! O.L.7XiX7X=X#X4XoX+X|.;X6X9X.X.XaX5XB.S T.kX-XM.fX2X2X,X~.n.E lXlXlXlXlXlXlXlXlXlXlXlXlXlXlXlX",
"lXlXlXlXlXlXlXlXlXlXlXlXlXlXlXK ..E.uXuX&X#X#X=X3X;X3X4X9X7X3X3X6XqX3X5XI c [ aXwXsX-XfX>X_ L.wX~.#.lXlXlXlXlXlXlXlXlXlXlXlXlXlXlX",
"lXlXlXlXlXlXlXlXlXlXlXlXlXb L i.kX3X=X=X&X=X#X#X#X3X3X3X3XC.#X6X4X6X;X9X$X8.9X9X0X0X-X0X/. ./.kXpX,Xn.E lXlXlXlXlXlXlXlXlXlXlXlXlX",
"lXlXlXlXlXlXlXlXlXlXlXlXV ` K.kXj.C [ tX=X=X=X=X#X;X;X3X3X.X=X4X6X6X6X;X.XdX9X5X5X5X0X0X0XpXsX0X0XgXeX!.o.lXlXlXlXlXlXlXlXlXlXlXlX",
"lXlXlXlXlXlXlXlXlXlXlXB ` #XuX*Xy.C 8.=X=X=X=X=X#X#X;X3X3X4X3X7X3X4X5X3XqXqX6X5X5X5X0X8X5X5X0X0X0XwXgX0XQ.v.lXlXlXlXlXlXlXlXlXlXlX",
"lXlXlXlXlXlXlXlXlXlXZ  .*X*XoX+X*X}.iX&X+X=X+X=X3X3X#X3X3X=X=X=X4X4X5X6X.X;X6X5X5X5X8X6X0X-X5X0X0X-X0XfXpX~.n.lXlXlXlXlXlXlXlXlXlX",
"lXlXlXlXlXlXlXlXlXB i.rX*XI.+X X+X=X&X+X&X#X&X=X#X#X#X#X3X3X3X3X3X3X9X+Xe.>X6X5X6X5X5X9X8X9X0X0X0X-X-XwXpXpX~.n.lXlXlXlXlXlXlXlXlX",
"lXlXlXlXlXlXlXlXS Q R |.&X+X X.XoX+X&X&X+X=X+X=X+X=X3X#X=X=X3X3X3X3X4X;X;X9X6X9X.X-X0X8X6X9X5X0X0X0X5X0X0XpXgX~.v.lXlXlXlXlXlXlXlX",
"lXlXlXlXlXlXlXb  .I.R P.+XoXoXoX.X+XH. X+XP.=X=X=X#X=X=X#X#X3X;X3X3X=X7X9X4X4X6X5X5X8X5X5X9X6X8X0X0X0X0X0X0XsX0X~.o.lXlXlXlXlXlXlX",
"lXlXlXlXlXlX6 ) |.*X1XdX=X|.oXoX.X+X@XI.1.oX=XoX}.7XiX3X#X#X3X3X3X3X3X3X3X4X4X6X+X>X6X5X5X5X7X5X5X0X5X0XfXsX>XgXaX~.P lXlXlXlXlXlX",
"lXlXlXlXlXlXZ t.tXF.9X5.k.3X+XoXoXoX+X XH.#X=XoX+X+Xy.U.yX#X#X=X3X3X3X3X3X3XaX6X;X;X6X0X5X5X5X5X5X8X5XfX6.,.fX0X2X,X!.lXlXlXlXlXlX",
"lXlXlXlXlXb  .1X|.aX-.# D.4XH.XXoXoX XoX=X&X+XoXtXj.c R iX3X=X#X=X3X3X3X=X7XZ. XqX6XqXR.-X5X5X5X5X8X0XwX1.O 7.jX-XuX^.#.lXlXlXlXlX",
"lXlXlXlXlXQ P.1X:X4.  a fX XC.|.oXoX X@X+X+XoX+X&X X[ Z.=X=X#X=X#X3X3X3X3X4XP.oX6X4X5X;X>X5X5X5X8X9X3XY.:X2 . 2XhXpXwXQ.h lXlXlXlX",
"lXlXlXlXm u.rXY.T.t   &.fX|.+XoXoX|.*X+X+XS.S.<X+XoX=XyX+X=X=X=X=X3X=X3X3X=XyX9X3X6X3X6X3X5X5X5X5X5X;XH.-Xg   g jXqXdX,X#.lXlXlXlX",
"lXlXlXlX! H.XXI.;.% . z hX|.|. XoX&XU.U.7XI.I.+X+X+X&X+X=X+X=X=X=X;X:X=X=X3X=X=X3X3X>X4X6X6X6X5X5X3X;XR.$Xp . @ %XhXpXpXQ.P lXlXlX",
"lXlXlXb 0.1XA.P.h O % : tXqX|..XXX*Xt.0.OX-X+X+X+X+X+X+X}.=X=X+X=X=X3X#X=X=X=X=X3X3X5XqXZ.M.qX5X5X5X3X6Xa.* & . =.jX0XdX^.#.lXlXlX",
"lXlXlX~ K.OXl.U.x o < . d jX4XY.oXoX@X X|.+X.X@XoX+X+X+XH.&X=X&X=X3X=X#X#X9XyX#X3X3X3X8X.X.X6X6X6X5XwX6Xy O > . %.jXsX0X0XQ.lXlXlX",
"lXlX7 { ).F.d.N.p O : ; . z jXfXoX|.oX+X+X.X.X+X+X.X+X+X#X&X+X+X+X}.=X#X7XK.(.iX=X3X3X=X8X9X6X4X6XhX6Xp o > ; . %.fXY.sXtXW._ lXlX",
"lXlXn 0.OXC.s.N.f o : > - . u {.jXfX;X|.|. X.X+X.X+X|.A.=X7X-X+X|.C.3X=XdXU m 7XyX7X=X3X3X4XwXhXhX5.e X ; > ; . &.fXY.sX8X/.v.lXlX",
"lXlXW a.OXC.a.U.D O > : > : X + d 3.tXfXN..X X X X+X|.I.tX9.(.uX+X=X=X=X7XU.N.4X XoX4X4XfXjX7X3.p O O > ; > ; X 3.jXsX0XpXsX!.lXlX",
"lX4 ] C.G.C.s.g.2.- & > > : > - X o e %.{.fXfX#X|..X+X7XN.v V <X=X+X+X=X+X7XyX=X|.#XjXhXV.l 1 o X - > : > > $ , 2X0X0X0X0XpX~.P lX",
"lX9 } *XG.A.d.e.Z.p o > : : : : > > + . % s 3.hXsX X.X+X+XR [ -X=X+X+X#X+X=X=X=XhXhX,.i + . + ; > : : : ; >   l jX-X5X0XeXgXQ.o.lX",
"lXm 0.*XA.A.h.p.g.<.* # > : : : : : : > - . o u {.jX#X@X+X<X7X+X+X+X+X+X=X=X4XjXk.t . X - > ; > : : ; : > X , gXfX8X5X0X0XdX,X+.lX",
"lXN j.OXG.C.C.d.<.j.*.# O > : : : ; : : : > - . o -.hX4X|.+X+X+X}. X&X+X+X9XsXl o . ; > ; ; > ; : : > > X + ].hX>X8X8X8X0XaX:Xv.lX",
"lXU Z.`.H.a.h.C.p.<.K.;.< o % : > : ; ; > ; > > %   z jX7XY. X+XH.I.7X+X9X4Xi . % > : : : : : : : > $ . < _.jXR.H.sX5X5X0XpXaXn.lX",
"lX~ F.).A.A.A.C.h.p.N.T.q.f : o O $ - > : : ; : > -   z jX.X|..X#X+XZ.4X4Xy . ; > : : : > ; % # o o : k 7XjXfX5X>XY.5X5X6XaXeXv.lX",
"lX^ F.l.A.H.A.A.H.S.D 4.E.K.1.k p w - O O & > : : > -   -.hX@X+X+X XC.4Xf . ; : : > : % o O : r p Y C.wXjX_.=.fX5X-X5X;X0XpXc.+.P ",
"lX] ).F.F.F.H.A.d.P.1 < ).4X XE.U.a.>.F p - o % > : > % o ].sX|..X+XwX;.. - : > > O o 3 f *.z.H.:XwXhXjX[.% u jX6X5X5X6X8X<X>Xb.I ",
"lX' ).H.F.H.F.C.q.K.f   : &.f.H..X;X6X6XE.1.h - o ; > > X u hX+X+X#XI.< + > < % X 1 Y S.wXfXsXsXqX*XV.$.&   =.jX3X6X5X5X6X9XfXb.I ",
"4 ~ ).F.F.H.A.F.d.h.T + # o & r p g Y ,.d.:X:Xq.u o - > ; X 5.fX|.:XD . : > + + j #XjXaXV.=.l z p w # X + # ].fX5X5X5X5X5X0X1Xx.I ",
"lX~ H.).F.F.H.C.s.q.h.y o > - # + o o + > d >.:X$Xh O & > . a hXT.I.e + > o = 4.jX8X-.u % o X X o $ - :   z jX4X3X5X3XaXwX6X1Xb.P ",
"lX~ C.).H.F.q.h.d.a.N.<.> X - > > ; > ; $ X # p s.eXk o - & - `.6X;.+ > + & `.jX,.3 . o - ; ; ; > > &   t dXwX;X3X6XqXR.Y.fXsXb.lX",
"lXS C.).F.F.d.C.D.1.;.N.<.u % o O O # % - > - o - >.qXg o > X =.sXh o & + G.hXf . O > : - # + O o o $ x 7XfX;X;X3X;XpXR.@XC.M.v.lX",
"lXS g.'.F.D.A.H.F.q.:.q.g.h.;.h x p t 1 & o % > + o *.6Xe + o f 6Xu O . -.jXi . - > $ o - e y p f k 4.aXqX#X;X5X;X.X3XqXaX XP.+.lX",
"lXn t.XXz.C.).<.d.F.C.a.z.<.h.U.N.B.s.q.;.g < O ; % X p.p.o o i P.e X 1 sXh   > * o 1 k 1.s.Z.U.T.:X4X=X;X;X3X3X>X.X3X5X5XhX,X..lX",
"lX5 9.'.l.F.F.d.h.G.).C.d.d.s.s.p.a.a.a.j.U.q.p O - + - Z.i X y <.3 . ,.f.. > + O k H.$XY.S.Z.C.|.+X&X#X#X3X;X3X3X3X3X7X4XdXW.( lX",
"lXlX] H.G.D.F.A.F.l.w.l.I.l.F.h.p.C.M.d.d.e.g.P.D + - o k *.. e *.; - 6.e $ $ # ,.wX#Xd.h. X|. X}.}.=X&X=X#X3X;X3X5X3X5X4XuXb.M lX",
"lXlXS j.).C.h.H.OXw.5 w.XX).).l.S.C.A.A.C.d.p.e.P.D O & > l ; 1 Y # a H X - O 5.sXS.}.|.|.+X+X+X+X X=X=X=X=X3X3X5X6X3X5XyX:Xx.lXlX",
"lXlXb 9.OXl.d.C.d.h.2.l.l.F.F.H.G.S.G.G.G.A.C.p.e.P.i + % y w 3 k # u e & . l hX;Xq.C.#X+X X+X+X#X=XoX X=X=X=XyX@X.X9XR.]./.` lXlX",
"lXlX4 ] ).H.H.d.2.I.|.H.F.F.H.F.A.G.G.S.G.C.M.C.d.j.1.- & ; ; 2 j ; ; - $ 3 <X4X X X X X+XoX+X+X+X=XI.U.7X=XoXU..X#X6X+X2Xb.J lXlX",
"lXlXlXB q.D.l.F.}.F.H.F.F.F.D.G.G.G.S.G.H.s.<.M.p.e.K.p O ; = e j ; - ; . &.hX}. X XoX XoX+X+X+X+X+X#X=X#X=XoX|.9X;X;XuX6X+.lXlXlX",
"lXlXlXb } ].D.l.l.C.C.F.Z.).F.G.S.S.J.G.A.A.H.s.1.C.P.Y + ; * 2 j - ; - + 6.sX}. X|. X@X X+X.X+X+X#X&X+X+X=X7XoXH.6X;XiXL.! lXlXlX",
"lXlXlXlXW l.).l.C.F.C.D.H.d.M.G.H.H.G.S.H.H.G.H.H.e.g.*.& - - 1 j ; ; % > '.8X|.|.`.|. XoX+X XoXoX=X+X+X+X#X3X}.Z.6X7X3X+.lXlXlXlX",
"lXlXlXlXb } [.D.D.l.C.H.).<.a.I.G.G.G.S.G.G.G.H.|.q.a.;.% - * 2 j ; , & > [.4X X|.F. X X X@X+XoX X}.+X+X#X+X&X3X7X=XgXL.! lXlXlXlX",
"lXlXlXlXlXZ g.'.C.C.G.r.j.`.H.S.F.F.F.H.H.F.I.d.;.V.R.D + ; = 2 j - : - + V.sX|.|. X X@X XoXoX+X|.Z.#X+X+X+X+X#X+X*X XO.lXlXlXlXlX",
"lXlXlXlXlX9 ] `.D.C.C.M.M.H.d.C.H.F.F.F.l.H.|.<.R G.K.i + ; = 1 j - ; : . %.jX.X`.|.|.<XOX|. XoXoX#XoXoX+X+X+X=XoXOXx.W lXlXlXlXlX",
"lXlXlXlXlXlXV 8.[.D.M.p.D.D.a.h.H.F.F.F.l.F.).a.).T.T $ - ; - 2 j - ; : % , V.N.|.|.2XZ.oX+X X X XoXoX#X+X+X=X+XuXL...lXlXlXlXlXlX",
"lXlXlXlXlXlXlXK s.'.C.d.C.C.F.Z.C.C.F.F.F.F.F.|.M.I.r . < ; * 1 h - ; : <   a 3X|.oXt.C ' %X+X X XoX X#X3X+XI.rX X..lXlXlXlXlXlXlX",
"lXlXlXlXlXlXlX9 W D.].C.C.l.C.C.C.F.F.F.F.A.D.l.<.2.;.1 O > - 1 h , : > o r D.4X|.OX[ v I XX&X X.XoX+XY.h.3X[.OXO.N lXlXlXlXlXlXlX",
"lXlXlXlXlXlXlXlXb ^ ).`.C.C.C.C.C.F.F.F.H.F.D.l.w.T j.p.: % - 2 g - : O w =X3X}.|.XXOXr.yX=X}.oX X X-X+XZ.1XuXO.! lXlXlXlXlXlXlXlX",
"lXlXlXlXlXlXlXlXlXV / `.].l.C.l.C.F.F.F.F.F.l.l.p.a.q.K.Y O - 2 h - - O 5.9XH.|.}.|.}.&X4.C.oX X X-XM.S.aX1XX.) lXlXlXlXlXlXlXlXlX",
"lXlXlXlXlXlXlXlXlXlXm ^ D.'.C.C.l.F.C.F.F.H.D.l.h.C.p.q.h.t o w f ; . d sXY.}.}.}.).oX+Xw.l.&XXX|.+XC.V.OXX.) lXlXlXlXlXlXlXlXlXlX",
"lXlXlXlXlXlXlXlXlXlXlXm ~ h.'.).4.:.).F.C.h.l.l.D.l.d.z.K.D o 1 f , O f.qX+XH.H.|.I.oX|.<X+X}.XX|.|.uX}.` Q lXlXlXlXlXlXlXlXlXlXlX",
"lXlXlXlXlXlXlXlXlXlXlXlXb W y.%XG.d.F.Z.A.).C.l.C.<.h.a.q.a.< - f X i dXH.:.H.|.).+X2.d.+X|.|.|.OXrXK...B lXlXlXlXlXlXlXlXlXlXlXlX",
"lXlXlXlXlXlXlXlXlXlXlXlXlX4 B ' F.*XD.D.d.R k.H.C.C.C.h.q.h.D $ i X 5.9XC.1.H.Y.`. Xh.S.|.`.oXrXOXu.) M lXlXlXlXlXlXlXlXlXlXlXlXlX",
"lXlXlXlXlXlXlXlXlXlXlXlXlXlXlXn ~ y.).1X1.G H.).F.D.l.h.q.q.g.f 3 l 9XI.H.oX|.H.I.). X@X|.2X*X(. .Z lXlXlXlXlXlXlXlXlXlXlXlXlXlXlX",
"lXlXlXlXlXlXlXlXlXlXlXlXlXlXlXlX5 V ] 0.C.%X|.d.d.D.D.C.1.:.a.p.1.oX|.A.H.H.H.`.G.C.*XOX`.B.X.K b lXlXlXlXlXlXlXlXlXlXlXlXlXlXlXlX",
"lXlXlXlXlXlXlXlXlXlXlXlXlXlXlXlXlXlX7 N ] 0.h.k.G.OXG.D.a.q.a.h.XX|.F.C.}. X|.%X1XOXS.0. .K b lXlXlXlXlXlXlXlXlXlXlXlXlXlXlXlXlXlX",
"lXlXlXlXlXlXlXlXlXlXlXlXlXlXlXlXlXlXlXlX4 m W } 0.r.C.F.`.`.'.%X[.%X[.1X).F.I.j.u. .Q V 9 lXlXlXlXlXlXlXlXlXlXlXlXlXlXlXlXlXlXlXlX",
"lXlXlXlXlXlXlXlXlXlXlXlXlXlXlXlXlXlXlXlXlXlXlX5 n S ~ { } u.0.0.0.0.u.i.} / / B n q lXlXlXlXlXlXlXlXlXlXlXlXlXlXlXlXlXlXlXlXlXlXlX",
"lXlXlXlXlXlXlXlXlXlXlXlXlXlXlXlXlXlXlXlXlXlXlXlXlXlXlX4 7 b b m m m n b q q lXlXlXlXlXlXlXlXlXlXlXlXlXlXlXlXlXlXlXlXlXlXlXlXlXlXlX"
};
